HIERARCHY
ROOT Hips
{
	OFFSET -0.001795 -0.223333 0.028219
	CHANNELS 6 Xposition Yposition Zposition Zrotation Yrotation Xrotation 
	JOINT LeftUpLeg
	{
		OFFSET 0.069520 -0.091406 -0.006815
		CHANNELS 3 Zrotation Yrotation Xrotation
		JOINT LeftLeg
		{
			OFFSET 0.034277 -0.375199 -0.004496
			CHANNELS 3 Zrotation Yrotation Xrotation
			JOINT LeftFoot
			{
				OFFSET -0.013596 -0.397961 -0.043693
				CHANNELS 3 Zrotation Yrotation Xrotation
				JOINT LeftToe
				{
					OFFSET 0.026358 -0.055791 0.119288
					CHANNELS 3 Zrotation Yrotation Xrotation
					End Site
					{
						OFFSET 0.000000 0.000000 0.000000
					}
				}
			}
		}
	}
	JOINT RightUpLeg
	{
		OFFSET -0.067670 -0.090522 -0.004320
		CHANNELS 3 Zrotation Yrotation Xrotation
		JOINT RightLeg
		{
			OFFSET -0.038290 -0.382569 -0.008850
			CHANNELS 3 Zrotation Yrotation Xrotation
			JOINT RightFoot
			{
				OFFSET 0.015774 -0.398415 -0.042312
				CHANNELS 3 Zrotation Yrotation Xrotation
				JOINT RightToe
				{
					OFFSET -0.025372 -0.048144 0.123348
					CHANNELS 3 Zrotation Yrotation Xrotation
					End Site
					{
						OFFSET 0.000000 0.000000 0.000000
					}
				}
			}
		}
	}
	JOINT Spine
	{
		OFFSET -0.002533 0.108963 -0.026696
		CHANNELS 3 Zrotation Yrotation Xrotation
		JOINT Spine1
		{
			OFFSET 0.005487 0.135180 0.001092
			CHANNELS 3 Zrotation Yrotation Xrotation
			JOINT Spine2
			{
				OFFSET 0.001457 0.052922 0.025425
				CHANNELS 3 Zrotation Yrotation Xrotation
				JOINT Neck
				{
					OFFSET -0.002778 0.213870 -0.042857
					CHANNELS 3 Zrotation Yrotation Xrotation
					JOINT Head
					{
						OFFSET 0.005152 0.064970 0.051349
						CHANNELS 3 Zrotation Yrotation Xrotation
						End Site
						{
							OFFSET 0.000000 0.000000 0.000000
						}
					}
				}
				JOINT LeftShoulder
				{
					OFFSET 0.078845 0.121749 -0.034090
					CHANNELS 3 Zrotation Yrotation Xrotation
					JOINT LeftArm
					{
						OFFSET 0.090977 0.030469 -0.008868
						CHANNELS 3 Zrotation Yrotation Xrotation
						JOINT LeftForeArm
						{
							OFFSET 0.259612 -0.012772 -0.027456
							CHANNELS 3 Zrotation Yrotation Xrotation
							JOINT LeftHand
							{
								OFFSET 0.249234 0.008986 -0.001171
								CHANNELS 3 Zrotation Yrotation Xrotation
								End Site
								{
									OFFSET 0.000000 0.000000 0.000000
								}
							}
						}
					}
				}
				JOINT RightShoulder
				{
					OFFSET -0.081759 0.118833 -0.038615
					CHANNELS 3 Zrotation Yrotation Xrotation
					JOINT RightArm
					{
						OFFSET -0.096012 0.032551 -0.009143
						CHANNELS 3 Zrotation Yrotation Xrotation
						JOINT RightForeArm
						{
							OFFSET -0.253742 -0.013329 -0.021401
							CHANNELS 3 Zrotation Yrotation Xrotation
							JOINT RightHand
							{
								OFFSET -0.255298 0.007772 -0.005559
								CHANNELS 3 Zrotation Yrotation Xrotation
								End Site
								{
									OFFSET 0.000000 0.000000 0.000000
								}
							}
						}
					}
				}
			}
		}
	}
}
MOTION
Frames: 8
Frame Time: 0.050000
0.897296 0.865307 1.548419 174.346854 17.799926 -173.306146 24.057370 -20.679296 -35.871390 -44.453411 -24.328528 28.061904 59.948350 -30.418128 69.872848 0.000000 0.000000 0.000000 15.626711 -47.291992 -57.088071 -55.768990 -13.074728 33.848126 89.112677 0.087798 45.605973 0.000000 0.000000 0.000000 -4.131819 -27.731415 41.263449 -4.791914 -2.043701 -24.535215 14.870908 41.686932 29.786372 14.592641 -9.177405 -28.276461 0.000000 0.000000 0.000000 -3.613529 -27.295292 -92.169653 15.569555 56.601422 19.167510 -56.315851 -14.307123 6.022550 0.000000 0.000000 0.000000 9.216629 -13.259574 80.867330 -45.966490 53.331056 -23.782125 -29.479969 -7.245739 0.846962 0.000000 0.000000 0.000000 
0.915695 0.863342 1.562573 172.692882 15.090252 -173.335561 24.284587 -21.085694 -35.682678 -40.888872 -23.457685 26.049456 59.139610 -36.764968 67.777924 0.000000 0.000000 0.000000 21.539379 -50.476300 -64.381882 -60.954034 -13.933243 32.649278 94.376038 -9.968856 51.742601 0.000000 0.000000 0.000000 -4.495533 -29.350404 42.197594 -4.967519 -2.586067 -24.985301 15.814989 42.851334 29.689071 13.967470 -10.470402 -28.669155 0.000000 0.000000 0.000000 -2.018206 -26.627528 -101.799313 31.573238 54.915699 29.865150 -57.339296 -8.148619 3.547993 0.000000 0.000000 0.000000 5.390599 -13.789140 90.678096 -56.083626 49.138091 -25.650612 -28.280196 -13.578349 2.152681 0.000000 0.000000 0.000000 
0.933411 0.861729 1.576625 171.981436 13.722425 -173.753045 24.315024 -21.120672 -35.196873 -38.961883 -22.679706 25.715071 58.393935 -37.672360 65.266374 0.000000 0.000000 0.000000 25.292595 -51.331627 -68.482822 -63.649116 -14.448951 32.700592 96.581720 -12.732219 53.974910 0.000000 0.000000 0.000000 -4.765509 -30.514240 42.894728 -4.927340 -2.647786 -24.608110 15.744747 43.659814 29.197723 13.430413 -12.093916 -27.921296 0.000000 0.000000 0.000000 -2.056216 -25.986325 -105.415741 38.136961 53.340752 34.128051 -58.641569 -6.547388 3.249727 0.000000 0.000000 0.000000 3.311148 -13.562320 94.116081 -59.748799 47.565922 -25.652020 -28.352915 -16.701714 2.871664 0.000000 0.000000 0.000000 
0.951073 0.858864 1.590503 171.237653 11.586919 -174.177603 24.524421 -21.382860 -34.900034 -35.710577 -21.291452 25.155286 58.403236 -37.502436 60.079346 0.000000 0.000000 0.000000 30.570781 -52.406517 -74.219342 -68.565113 -15.800380 32.451512 98.557509 -23.098855 59.076697 0.000000 0.000000 0.000000 -4.556909 -31.834629 43.240669 -5.128191 -2.914083 -24.609359 16.168175 44.164474 29.055724 12.406017 -12.774859 -28.324781 0.000000 0.000000 0.000000 0.146805 -23.671917 -115.304245 49.769942 48.244014 40.002182 -58.578818 0.693417 -0.780268 0.000000 0.000000 0.000000 -0.871041 -13.838141 102.370363 -67.092185 43.204846 -24.445084 -25.010819 -22.213673 3.414966 0.000000 0.000000 0.000000 
0.969173 0.854657 1.604081 170.575984 10.353274 -174.935400 24.411844 -21.158351 -33.810584 -31.840561 -19.542716 24.185241 58.504062 -36.242021 54.147916 0.000000 0.000000 0.000000 32.023523 -52.297949 -75.246991 -71.521035 -16.842531 33.081182 101.063731 -28.721864 60.819524 0.000000 0.000000 0.000000 -4.253842 -32.463015 43.253793 -5.495310 -3.166449 -24.112596 16.621873 44.664197 28.895487 11.354980 -14.523805 -27.688658 0.000000 0.000000 0.000000 1.292022 -22.196836 -122.578740 56.783891 43.583600 42.959556 -58.539714 4.101119 -2.914866 0.000000 0.000000 0.000000 -4.682777 -13.692136 108.730190 -71.931659 39.667093 -21.983403 -21.972032 -26.869829 3.589923 0.000000 0.000000 0.000000 
0.988025 0.851679 1.617816 169.723865 8.500962 -175.595185 24.870540 -21.434153 -33.283127 -28.282006 -18.000372 22.050792 56.423217 -35.586834 50.217161 0.000000 0.000000 0.000000 32.490412 -52.867436 -75.484437 -73.359867 -17.606506 34.560457 102.664133 -34.827309 61.841146 0.000000 0.000000 0.000000 -3.758074 -32.805958 42.854552 -5.261001 -3.172383 -23.634303 16.263397 44.401351 28.411642 10.971757 -15.971051 -27.584797 0.000000 0.000000 0.000000 3.742195 -18.133326 -135.656325 65.207215 33.668205 43.356524 -56.585771 14.190555 -8.684815 0.000000 0.000000 0.000000 -7.230542 -13.671679 117.460207 -76.232089 32.810117 -18.101499 -17.114555 -30.798440 2.637101 0.000000 0.000000 0.000000 
1.007071 0.851333 1.631848 169.700244 7.300545 -176.042012 25.751432 -21.720014 -32.393229 -25.555940 -16.472114 21.293475 54.527787 -32.986743 46.343590 0.000000 0.000000 0.000000 30.979130 -53.054596 -73.500935 -73.934392 -17.884938 36.789558 103.919965 -37.200651 61.461007 0.000000 0.000000 0.000000 -3.755422 -33.434932 43.081569 -5.029563 -3.130367 -24.279886 17.004659 44.668195 29.521417 10.191084 -17.593837 -27.423900 0.000000 0.000000 0.000000 4.509507 -12.632675 -151.265428 70.603861 20.494882 39.918104 -53.339721 24.844540 -13.704280 0.000000 0.000000 0.000000 -11.006552 -12.203590 128.738250 -79.826785 24.761255 -11.959034 -9.885433 -35.530731 0.564704 0.000000 0.000000 0.000000 
1.025276 0.853657 1.646059 169.325303 6.508846 -175.608354 27.152091 -22.332129 -31.791051 -23.015808 -15.006273 17.871153 50.134047 -31.722490 46.094523 0.000000 0.000000 0.000000 30.525158 -53.238803 -72.806027 -71.839548 -17.266474 38.190468 106.498992 -34.153108 59.062344 0.000000 0.000000 0.000000 -1.351201 -31.806677 40.470031 -5.452175 -3.618582 -23.501476 15.729629 42.750280 28.350404 9.213606 -19.148575 -27.184904 0.000000 0.000000 0.000000 4.486179 -7.248811 -165.353431 73.470400 7.070812 33.752667 -48.183839 35.650499 -17.587321 0.000000 0.000000 0.000000 -11.593708 -11.319485 136.033452 -81.307099 19.146628 -8.860805 -5.398905 -36.896265 -1.237720 0.000000 0.000000 0.000000 
